<svg width="250" height="40" viewBox="0 0 250 40" fill="none" xmlns="http://www.w3.org/2000/svg">
<path d="M220.441 25.2072L223.784 29.7697L219.222 20.8147C223.444 20.8147 227.667 20.8147 231.861 20.8147L236.055 29.9398L239.881 20.8147H249.488L241.468 40H231.861L227.667 30.8749L223.87 40H214.263L220.441 25.2072Z" fill="#F3F4FA"/>
<path d="M189.755 25.2072L193.099 29.7697L188.536 20.8147C192.759 20.8147 196.981 20.8147 201.203 20.8147L195.309 34.9274L196.443 36.7977H202.535C204.746 31.4701 206.985 26.1424 209.195 20.8147H218.802C216.138 27.2193 213.474 33.5955 210.81 40C203.329 40 195.876 40 188.394 40L185.589 35.2108L189.755 25.2072Z" fill="#F3F4FA"/>
<path d="M132.369 9.15101L139.336 18.6563L129.831 -1.52588e-05C147.483 -1.52588e-05 165.195 -1.52588e-05 182.848 -1.52588e-05L190.11 6.67138L183.143 23.3203L177.77 26.6265H171.512L179.542 39.9693H159.527L151.498 26.6265H145.063L139.513 39.9693H119.499L132.369 9.15101ZM153.387 6.67138L147.838 20.0142H164.546L170.095 6.67138H153.387Z" fill="#00F77D"/>
<path d="M88.8066 40L94.9845 25.2072L98.3284 29.7697L93.7659 20.8147C102.239 20.8147 110.741 20.8147 119.214 20.8147L122.02 25.604L116.012 40H106.405L109.097 33.5955H101.077L98.4134 40H88.8066ZM105.073 24.017L102.409 30.4215H110.429L112.299 25.8873L111.166 24.017H105.073Z" fill="#F3F4FA"/>
<path d="M65.8995 25.2072L69.2435 29.7697L64.6809 20.8147C73.1542 20.8147 84.8581 20.8147 93.3313 20.8147L91.9994 24.017H75.9881L74.0044 28.8062H87.1535L85.8216 32.0085H72.6725L70.6604 36.7977H86.6717L85.3398 40C77.8584 40 67.2031 40 59.7217 40L65.8995 25.2072Z" fill="#F3F4FA"/>
<path d="M35.2628 25.2072L38.6067 29.7697L34.0442 20.8147C42.5175 20.8147 51.0191 20.8147 59.4923 20.8147L62.978 24.017L59.634 32.0085L57.0552 33.5955H54.0513L57.9054 40H48.2986L44.4445 33.5955H41.3556L38.6918 40H29.085L35.2628 25.2072ZM45.3514 24.017L42.6875 30.4215H50.7074L53.3712 24.017H45.3514Z" fill="#F3F4FA"/>
<path d="M6.17783 25.2072L9.52179 29.7697L4.95927 20.8147C13.4325 20.8147 25.1364 20.8147 33.6097 20.8147L32.2777 24.017H16.2664L10.9387 36.7977H26.9501L25.6181 40C18.1367 40 7.48141 40 0 40L6.17783 25.2072Z" fill="#F3F4FA"/>
</svg>
